<svg width="100%" height="100%" id="svg" viewBox="0 0 1440 590" xmlns="http://www.w3.org/2000/svg"
    class="transition duration-300 ease-in-out delay-150">
    <defs>
        <linearGradient id="gradient" x1="3%" y1="32%" x2="97%" y2="68%">
            <stop offset="5%" stop-color="#8ed1fc"></stop>
            <stop offset="95%" stop-color="#8ED1FC"></stop>
        </linearGradient>
    </defs>
    <path
        d="M 0,600 L 0,112 C 46.767492909113344,104.7952645209027 93.53498581822669,97.59052904180541 150,103 C 206.4650141817733,108.40947095819459 272.62754963620665,126.43314835368108 320,133 C 367.37245036379335,139.56685164631892 395.95481563694665,134.67687754347023 451,125 C 506.04518436305335,115.32312245652977 587.5531878160069,100.85934147243802 652,110 C 716.4468121839931,119.14065852756198 763.8324330990258,151.88575656677767 805,163 C 846.1675669009742,174.11424343322233 881.11707978789,163.59763226045135 930,149 C 978.88292021211,134.40236773954865 1041.6992477494143,115.72371439141695 1096,103 C 1150.3007522505857,90.27628560858305 1196.0859292144528,83.50751017388087 1252,86 C 1307.9140707855472,88.49248982611913 1373.9570353927736,100.24624491305957 1440,112 L 1440,600 L 0,600 Z"
        stroke="none" stroke-width="0" fill="url(#gradient)" fill-opacity="0.4"
        class="transition-all duration-300 ease-in-out delay-150 path-0"
        transform="rotate(-180 720 300)"></path>
    <defs>
        <linearGradient id="gradient" x1="3%" y1="32%" x2="97%" y2="68%">
            <stop offset="5%" stop-color="#8ed1fc"></stop>
            <stop offset="95%" stop-color="#8ED1FC"></stop>
        </linearGradient>
    </defs>
    <path
        d="M 0,600 L 0,262 C 62.65167098285856,279.5891971883093 125.30334196571712,297.1783943766186 181,296 C 236.69665803428288,294.8216056233814 285.4383031199901,274.875619681835 335,270 C 384.5616968800099,265.124380318165 434.94344555432235,275.3191268960414 490,267 C 545.0565544456776,258.6808731039586 604.7879146627205,231.84787273399928 648,231 C 691.2120853372795,230.15212726600072 717.9048957947958,255.2893821679615 773,271 C 828.0951042052042,286.7106178320385 911.5925021580958,292.99459859415464 967,285 C 1022.4074978419042,277.00540140584536 1049.7250955728202,254.7322234554199 1094,254 C 1138.2749044271798,253.2677765445801 1199.5071155506228,274.07650758416577 1260,279 C 1320.4928844493772,283.92349241583423 1380.2464422246885,272.96174620791714 1440,262 L 1440,600 L 0,600 Z"
        stroke="none" stroke-width="0" fill="url(#gradient)" fill-opacity="0.53"
        class="transition-all duration-300 ease-in-out delay-150 path-1"
        transform="rotate(-180 720 300)"></path>
    <defs>
        <linearGradient id="gradient" x1="3%" y1="32%" x2="97%" y2="68%">
            <stop offset="5%" stop-color="#8ed1fc"></stop>
            <stop offset="95%" stop-color="#8ED1FC"></stop>
        </linearGradient>
    </defs>
    <path
        d="M 0,600 L 0,412 C 41.1402145763966,418.57013195215194 82.2804291527932,425.1402639043039 140,419 C 197.7195708472068,412.8597360956961 272.0184979652238,394.00907633493654 326,402 C 379.9815020347762,409.99092366506346 413.6455789863116,444.8234307559501 455,442 C 496.3544210136884,439.1765692440499 545.3991860895301,398.69720064126284 613,376 C 680.6008139104699,353.30279935873716 766.757676655568,348.38776667899856 826,356 C 885.242323344432,363.61223332100144 917.5701072881983,383.7517326427427 964,390 C 1010.4298927118017,396.2482673572573 1070.961894191639,388.6053027500308 1121,389 C 1171.038105808361,389.3946972499692 1210.5823159452461,397.82705635713404 1262,403 C 1313.4176840547539,408.17294364286596 1376.708842027377,410.08647182143295 1440,412 L 1440,600 L 0,600 Z"
        stroke="none" stroke-width="0" fill="url(#gradient)" fill-opacity="1"
        class="transition-all duration-300 ease-in-out delay-150 path-2"
        transform="rotate(-180 720 300)"></path>
</svg>