<svg width="100%" height="100%" id="svg" viewBox="0 0 1440 390" xmlns="http://www.w3.org/2000/svg"
    class="transition duration-300 ease-in-out delay-150">
    <defs>
        <linearGradient id="gradient" x1="3%" y1="32%" x2="97%" y2="68%">
            <stop offset="5%" stop-color="#8ed1fc"></stop>
            <stop offset="95%" stop-color="#8ED1FC"></stop>
        </linearGradient>
    </defs>
    <path
        d="M 0,400 L 0,75 C 26.293067535348214,83.46331543308281 52.58613507069643,91.92663086616564 94,91 C 135.41386492930357,90.07336913383436 191.94852725256254,79.75679196842027 226,68 C 260.05147274743746,56.24320803157973 271.61975591905355,43.04620126015329 312,45 C 352.38024408094645,46.95379873984671 421.5724490712232,64.05840299096656 458,73 C 494.4275509287768,81.94159700903344 498.09044779605347,82.72018677598042 533,75 C 567.9095522039465,67.27981322401958 634.0657597445627,51.06084990511172 682,50 C 729.9342402554373,48.93915009488828 759.6465132256957,63.03641360357267 789,76 C 818.3534867743043,88.96358639642733 847.3481873526546,100.79349568059763 884,97 C 920.6518126473454,93.20650431940237 964.9607373636854,73.78960367403675 997,66 C 1029.0392626363146,58.210396325963245 1048.8088631926034,62.04808962325535 1091,73 C 1133.1911368073966,83.95191037674465 1197.8038098659001,102.01803783294187 1233,93 C 1268.1961901340999,83.98196216705813 1273.975897343796,47.87975904497719 1310,37 C 1346.024102656204,26.120240955022812 1412.2926007589156,40.462925987149376 1439,51 C 1465.7073992410844,61.537074012850624 1452.853699620542,68.2685370064253 1440,75 L 1440,400 L 0,400 Z"
        stroke="none" stroke-width="0" fill="url(#gradient)" fill-opacity="0.4"
        class="transition-all duration-300 ease-in-out delay-150 path-0"></path>
    <defs>
        <linearGradient id="gradient" x1="3%" y1="32%" x2="97%" y2="68%">
            <stop offset="5%" stop-color="#8ed1fc"></stop>
            <stop offset="95%" stop-color="#8ED1FC"></stop>
        </linearGradient>
    </defs>
    <path
        d="M 0,400 L 0,175 C 28.795173241439713,187.7062343099142 57.590346482879426,200.41246861982842 99,200 C 140.40965351712057,199.58753138017158 194.43378730992197,186.05635983060054 231,187 C 267.56621269007803,187.94364016939946 286.67450427743273,203.36209205776933 323,210 C 359.32549572256727,216.63790794223067 412.86819558034733,214.49527193832205 458,199 C 503.13180441965267,183.50472806167795 539.852713401178,154.6568201889426 574,142 C 608.147286598822,129.3431798110574 639.7209508149408,132.87744730590762 673,144 C 706.2790491850592,155.12255269409238 741.2634833390588,173.833390587427 781,188 C 820.7365166609412,202.166609412573 865.2251158288241,211.7889903443844 897,208 C 928.7748841711759,204.2110096556156 947.8360533456446,187.0106480350354 985,181 C 1022.1639466543554,174.9893519649646 1077.4306707885978,180.16841751547395 1116,174 C 1154.5693292114022,167.83158248452605 1176.4412634999635,150.31568190306885 1209,156 C 1241.5587365000365,161.68431809693115 1284.8042752115482,190.5688548722507 1329,193 C 1373.1957247884518,195.4311451277493 1418.3416356538435,171.4088986079284 1437,164 C 1455.6583643461565,156.5911013920716 1447.8291821730782,165.7955506960358 1440,175 L 1440,400 L 0,400 Z"
        stroke="none" stroke-width="0" fill="url(#gradient)" fill-opacity="0.53"
        class="transition-all duration-300 ease-in-out delay-150 path-1"></path>
    <defs>
        <linearGradient id="gradient" x1="3%" y1="32%" x2="97%" y2="68%">
            <stop offset="5%" stop-color="#8ed1fc"></stop>
            <stop offset="95%" stop-color="#8ED1FC"></stop>
        </linearGradient>
    </defs>
    <path
        d="M 0,400 L 0,275 C 35.05008945128867,264.6627907848208 70.10017890257734,254.32558156964154 108,256 C 145.89982109742266,257.67441843035846 186.6493738409793,271.36046450625463 227,268 C 267.3506261590207,264.63953549374537 307.30232573350537,244.23256040533994 346,243 C 384.69767426649463,241.76743959466006 422.1413232249993,259.70929387238573 451,274 C 479.8586767750007,288.29070612761427 500.1323813664974,298.9302641051172 534,299 C 567.8676186335026,299.0697358948828 615.3291513090111,288.5696497071457 661,279 C 706.6708486909889,269.4303502928543 750.551013397458,260.79113706630017 793,254 C 835.448986602542,247.2088629336998 876.4667951011572,242.2658020276534 906,242 C 935.5332048988428,241.7341979723466 953.5818061979132,246.1456548230862 993,259 C 1032.4181938020868,271.8543451769138 1093.2059801071891,293.15157868000176 1127,290 C 1160.7940198928109,286.84842131999824 1167.5942733733311,259.24803045690675 1199,258 C 1230.4057266266689,256.75196954309325 1286.4169263994875,281.85629949237125 1333,279 C 1379.5830736005125,276.14370050762875 1416.738021028718,245.32677157360823 1433,240 C 1449.261978971282,234.67322842639177 1444.6309894856408,254.8366142131959 1440,275 L 1440,400 L 0,400 Z"
        stroke="none" stroke-width="0" fill="url(#gradient)" fill-opacity="1"
        class="transition-all duration-300 ease-in-out delay-150 path-2"></path>
</svg>